<?xml version="1.0" encoding="UTF-8"?>
<svg xmlns="http://www.w3.org/2000/svg" width="800" height="800" viewBox="0 0 800 800">
  <g id="Merged_Cutout" data-name="Merged Cutout">
    <path d="m643.92,460.55c-12.92-15.23-38.5-25.94-72.86-34.88,6.41-17.11,8.83-31.32,9.76-37.78,12.05-83.84-38.13-163.97-74.55-173.02-5.41-1.34-13-3.23-19.58.97-14.69,9.38-26.12,50.26-26.12,50.27,0,0,0,0,0,0,0,0,0,0,0,0-19.3-.51-39.71-.45-61.11.41-23.9.96-46.51,2.8-67.7,5.22-1.2-6.6-8.88-46.21-34.51-54.71-.36-.12-8.04-2.58-16.17-1.03-28.99,5.53-60.55,61.6-65.03,125.16-21.43-11.35-36.55-23.86-45.67-37.75-5.36-8.16-5.52-17.84-.48-29.6,7.03-16.41,23.77-34.86,45.94-50.61,22.02-15.65,46.66-26.81,67.61-30.63,7.61-1.39,12.65-8.68,11.26-16.28-1.39-7.61-8.67-12.65-16.28-11.26-24.84,4.53-53.57,17.41-78.81,35.35-26.62,18.93-46.32,41.09-55.45,62.41-8.77,20.47-7.8,39.84,2.81,56,14.52,22.11,38.83,39.48,69.15,53.55.65,8.39,1.83,16.79,3.61,25.11,10.05,46.92,35.77,75.5,41.38,81.52,45.42,48.76,105.14,49.18,138.34,49.4,34.92.24,90.38.62,134.87-44.34,10.3-10.4,18.33-21.55,24.61-32.48,30.82,7.64,54.52,16.36,63.64,27.11,12.56,14.81,14.59,30.45,6.21,47.81-16.13,33.38-65.56,63.29-116.05,73.94,1.48-7.53,2.14-15.47,1.68-23.69-.68-11.97-3.58-21.71-6.12-28.37l-200.79-4.74c-2.86,6.52-6.23,16.12-7.46,28.05-3.32,32.34,11.06,63.31,29.6,81.78,41.2,41.03,120.52,37.76,158.26-3.33,4.79-5.22,9.57-11.77,13.74-19.35,25.8-3.4,52.35-11.6,77.17-24.05,36-18.06,62.71-42.23,75.18-68.06,13.15-27.22,9.57-54.96-10.07-78.11Zm-283.37-76.65c-8.74,11.44-21.89,17.93-38.02,18.77-.34.02-.97.04-1.84.04-7.27,0-31.45-1.71-45.87-23.42-12.41-18.68-8.84-39.06-7.45-44.86l.09-.36.37-.02c13.38-.72,23.81-1.2,30.14-1.4l.55-.02-.03.55c-.35,5.79.06,11.49,1.22,16.95,1.25,5.89,5.06,23.82,16.32,26.89.91.25,2.82.77,5.11.25,10.15-2.27,13.28-21.18,13.8-24.95.87-6.25.49-12.68-1.13-19.11l-.16-.63h.65c5.07.06,10.2.13,15.24.22,5.76.11,11.63.25,17.45.42h.34s.11.33.11.33c.41,1.15,9.8,28.49-6.9,50.34Zm165.01-.44c-8.74,11.44-21.89,17.93-38.02,18.77-.34.02-.97.04-1.84.04-7.27,0-31.45-1.71-45.87-23.42-12.41-18.68-8.84-39.06-7.45-44.86l.09-.36.37-.02c13.61-.73,23.75-1.2,30.14-1.4l.55-.02-.03.55c-.35,5.79.06,11.49,1.22,16.95,1.25,5.89,5.05,23.82,16.32,26.89.91.25,2.82.77,5.11.25,10.15-2.27,13.28-21.18,13.8-24.95.87-6.25.49-12.68-1.13-19.11l-.16-.63h.65c5.09.06,10.22.13,15.24.23,5.79.11,11.66.25,17.45.42h.34s.11.33.11.33c.41,1.15,9.81,28.49-6.9,50.34Z" stroke-width="0"/>
  </g>
</svg>